<svg width="36" height="36" viewBox="0 0 36 36" fill="none" xmlns="http://www.w3.org/2000/svg">
<g clip-path="url(#clip0_104_4797)">
<ellipse cx="18" cy="18.0001" rx="18" ry="17.9991" fill="#1877F2"/>
<path d="M18 6.29932C11.5748 6.29932 6.30005 11.1805 6.30005 17.2267C6.30005 20.4479 7.8308 23.3099 10.2 25.3035V29.6982L14.5271 27.5897C15.6269 27.9127 16.7774 28.1541 18 28.1541C24.4253 28.1541 29.7001 23.2729 29.7001 17.2267C29.7001 11.1805 24.4253 6.29932 18 6.29932ZM18 8.19973C23.4201 8.19973 27.7501 12.2533 27.7501 17.2267C27.7501 22.2001 23.4201 26.2537 18 26.2537C16.8349 26.2537 15.7224 26.038 14.6792 25.6892L14.2833 25.5705L12.15 26.61V24.472L11.7844 24.1746C9.6209 22.5127 8.25005 20.0222 8.25005 17.2267C8.25005 12.2533 12.58 8.19973 18 8.19973ZM16.9032 14.2278L11.0229 20.2854L16.2938 17.4348L19.0969 20.3747L24.9167 14.2269L19.7668 17.049L16.9032 14.2278Z" fill="white"/>
</g>
<defs>
<clipPath id="clip0_104_4797">
<rect width="36" height="36" fill="white"/>
</clipPath>
</defs>
</svg>
